<svg width="60" height="60" viewBox="0 0 60 60" fill="none" xmlns="http://www.w3.org/2000/svg">
<g clip-path="url(#clip0_741_237)">
<rect width="60" height="60" fill="#FDD1EA"/>
<path fill-rule="evenodd" clip-rule="evenodd" d="M54.6274 0L55.4558 0.828427L54.0416 2.24264L51.799 0L54.6274 0ZM5.37258 0L4.54416 0.828427L5.95837 2.24264L8.20101 0L5.37258 0ZM48.9706 0L52.6274 3.65685L51.2132 5.07107L46.1421 0L48.9706 0ZM11.0294 0L7.37258 3.65685L8.7868 5.07107L13.8579 0L11.0294 0ZM43.3137 0L49.799 6.48528L48.3848 7.8995L40.4853 0H43.3137ZM16.6863 0L10.201 6.48528L11.6152 7.8995L19.5147 0L16.6863 0ZM37.6569 0L46.9706 9.31371L45.5564 10.7279L34.8284 0L37.6569 0ZM22.3431 0L13.0294 9.31371L14.4437 10.7279L25.1716 0L22.3431 0ZM32 0L44.1421 12.1421L42.7279 13.5563L30 0.828427L17.2721 13.5563L15.8579 12.1421L28 0H32ZM0.284271 0L28.2843 28L26.8701 29.4142L0 2.54416V0L0.284271 0ZM0 5.37258L25.4558 30.8284L24.0416 32.2426L0 8.20101L0 5.37258ZM0 11.0294L22.6274 33.6569L21.2132 35.0711L0 13.8579L0 11.0294ZM0 16.6863L19.799 36.4853L18.3848 37.8995L0 19.5147L0 16.6863ZM0 22.3431L16.9706 39.3137L15.5563 40.7279L0 25.1716L0 22.3431ZM0 28L14.1421 42.1421L12.7279 43.5564L0 30.8284V28ZM0 33.6569L11.3137 44.9706L9.8995 46.3848L0 36.4853L0 33.6569ZM0 39.3137L8.48528 47.799L7.07107 49.2132L0 42.1421L0 39.3137ZM0 44.9706L5.65685 50.6274L4.24264 52.0416L0 47.799L0 44.9706ZM0 50.6274L2.82843 53.4558L1.41421 54.8701L0 53.4558L0 50.6274ZM54.6274 60L30 35.3726L5.37258 60H8.20101L30 38.201L51.799 60H54.6274ZM48.9706 60L30 41.0294L11.0294 60H13.8579L30 43.8579L46.1421 60H48.9706ZM43.3137 60L30 46.6863L16.6863 60H19.5147L30 49.5147L40.4853 60H43.3137ZM37.6569 60L30 52.3431L22.3431 60H25.1716L30 55.1716L34.8284 60H37.6569ZM32 60L30 58L28 60H32ZM59.7157 0L31.7157 28L33.1299 29.4142L60 2.54416V0L59.7157 0ZM60 5.37258L34.5442 30.8284L35.9584 32.2426L60 8.20101V5.37258ZM60 11.0294L37.3726 33.6569L38.7868 35.0711L60 13.8579V11.0294ZM60 16.6863L40.201 36.4853L41.6152 37.8995L60 19.5147V16.6863ZM60 22.3431L43.0294 39.3137L44.4436 40.7279L60 25.1716V22.3431ZM60 28L45.8579 42.1421L47.2721 43.5564L60 30.8284V28ZM60 33.6569L48.6863 44.9706L50.1005 46.3848L60 36.4853V33.6569ZM60 39.3137L51.5147 47.799L52.9289 49.2132L60 42.1421V39.3137ZM60 44.9706L54.3431 50.6274L55.7574 52.0416L60 47.799V44.9706ZM60 50.6274L57.1716 53.4558L58.5858 54.8701L60 53.4558V50.6274ZM39.8995 16.3848L41.3137 14.9706L30 3.65685L18.6863 14.9706L20.1005 16.3848L30 6.48528L39.8995 16.3848ZM37.0711 19.2132L38.4853 17.799L30 9.31371L21.5147 17.799L22.9289 19.2132L30 12.1421L37.0711 19.2132ZM34.2426 22.0416L35.6569 20.6274L30 14.9706L24.3431 20.6274L25.7574 22.0416L30 17.799L34.2426 22.0416ZM31.4142 24.8701L32.8284 23.4558L30 20.6274L27.1716 23.4558L28.5858 24.8701L30 23.4558L31.4142 24.8701ZM56.8701 59.4142L58.2843 58L30 29.7157L1.71573 58L3.12994 59.4142L30 32.5442L56.8701 59.4142Z" fill="#FFBECE"/>
</g>
<defs>
<clipPath id="clip0_741_237">
<rect width="60" height="60" fill="white"/>
</clipPath>
</defs>
</svg>
